<svg xmlns="http://www.w3.org/2000/svg" width="37" height="37" viewBox="0 0 37 37" fill="none"><rect width="37" height="37" rx="18.5" fill="#F2F2F2"></rect><path d="M18.5 10.1667C17.6759 10.1667 16.8703 10.411 16.1851 10.8689C15.4999 11.3267 14.9659 11.9775 14.6505 12.7388C14.3351 13.5002 14.2526 14.338 14.4134 15.1462C14.5742 15.9545 14.971 16.6969 15.5537 17.2796C16.1364 17.8623 16.8789 18.2592 17.6871 18.4199C18.4954 18.5807 19.3332 18.4982 20.0945 18.1828C20.8559 17.8675 21.5066 17.3334 21.9645 16.6482C22.4223 15.963 22.6667 15.1574 22.6667 14.3333C22.6667 13.2283 22.2277 12.1685 21.4463 11.3871C20.6649 10.6057 19.6051 10.1667 18.5 10.1667ZM18.5 16.8333C18.0055 16.8333 17.5222 16.6867 17.1111 16.412C16.7 16.1373 16.3795 15.7469 16.1903 15.29C16.0011 14.8332 15.9516 14.3306 16.048 13.8456C16.1445 13.3607 16.3826 12.9152 16.7322 12.5656C17.0819 12.2159 17.5273 11.9778 18.0123 11.8814C18.4972 11.7849 18.9999 11.8344 19.4567 12.0236C19.9135 12.2129 20.304 12.5333 20.5787 12.9444C20.8534 13.3555 21 13.8389 21 14.3333C21 14.9964 20.7366 15.6323 20.2678 16.1011C19.7989 16.5699 19.163 16.8333 18.5 16.8333ZM26 26V25.1667C26 23.6196 25.3854 22.1358 24.2915 21.0419C23.1975 19.9479 21.7138 19.3333 20.1667 19.3333H16.8333C15.2862 19.3333 13.8025 19.9479 12.7085 21.0419C11.6146 22.1358 11 23.6196 11 25.1667V26H12.6667V25.1667C12.6667 24.0616 13.1057 23.0018 13.8871 22.2204C14.6685 21.439 15.7283 21 16.8333 21H20.1667C21.2717 21 22.3315 21.439 23.1129 22.2204C23.8943 23.0018 24.3333 24.0616 24.3333 25.1667V26H26Z" fill="black"></path></svg>