<svg xmlns="http://www.w3.org/2000/svg" width="37" height="37" viewBox="0 0 37 37" fill="none"><rect width="37" height="37" rx="18.5" fill="#F2F2F2"></rect><g clip-path="url(#clip0_555_62)"><path d="M15.6457 22.6604H25.4143C25.7403 22.6604 26.025 22.3925 26.025 22.0325C26.025 21.6725 25.7403 21.4046 25.4143 21.4046H15.7878C15.3107 21.4046 15.0178 21.0696 14.9425 20.5593L14.8085 19.6804H25.4307C26.6528 19.6804 27.2807 18.9268 27.4564 17.73L28.126 13.3018C28.144 13.1967 28.1552 13.0905 28.1596 12.9839C28.1596 12.5821 27.8582 12.3057 27.3978 12.3057H13.7289L13.5696 11.2429C13.486 10.5982 13.2518 10.2714 12.3982 10.2714H9.45962C9.12497 10.2714 8.84033 10.565 8.84033 10.9C8.84033 11.2429 9.12497 11.5361 9.45997 11.5361H12.2889L13.6282 20.7268C13.8043 21.9154 14.4318 22.6604 15.6457 22.6604ZM26.7364 13.5696L26.1428 17.5793C26.0757 18.0982 25.7996 18.4164 25.3057 18.4164L14.625 18.4246L13.9132 13.5696H26.7364ZM16.3071 26.7286C16.4856 26.73 16.6626 26.696 16.8278 26.6284C16.993 26.5607 17.1431 26.4609 17.2693 26.3347C17.3955 26.2085 17.4953 26.0584 17.563 25.8932C17.6306 25.728 17.6647 25.551 17.6632 25.3725C17.664 25.1942 17.6295 25.0175 17.5616 24.8526C17.4937 24.6877 17.3939 24.5379 17.2678 24.4118C17.1417 24.2857 16.9919 24.1859 16.827 24.118C16.6621 24.0502 16.4854 24.0156 16.3071 24.0164C15.5457 24.0164 14.9428 24.6193 14.9428 25.3725C14.9428 26.1343 15.5457 26.7286 16.3071 26.7286ZM24.1335 26.7286C24.8953 26.7286 25.4978 26.1343 25.4978 25.3725C25.4978 24.6189 24.8953 24.0164 24.1335 24.0164C23.3803 24.0164 22.7693 24.6193 22.7693 25.3725C22.7693 26.1343 23.3803 26.7286 24.1335 26.7286Z" fill="black"></path></g><defs><clipPath id="clip0_555_62"><rect width="20" height="20" fill="white" transform="translate(8.5 8.5)"></rect></clipPath></defs></svg>