<svg xmlns="http://www.w3.org/2000/svg" width="37" height="37" viewBox="0 0 37 37" fill="none"><rect width="37" height="37" rx="18.5" fill="#F2F2F2"></rect><path d="M26.8192 11.4182C25.54 9.86611 23.7622 9.01158 21.8111 9.01158C20.6376 9.01158 19.503 9.29674 18.4998 9.84043C17.4975 9.29674 16.363 9.01158 15.1884 9.01158C13.2373 9.01158 11.4585 9.86611 10.1803 11.4182C8.78927 13.1067 8.21275 15.4128 8.63641 17.5865C9.6366 22.7115 14.856 26.2917 17.0544 27.5925C17.5006 27.8561 18.0002 27.9884 18.4998 27.9884C18.9993 27.9884 19.4999 27.8571 19.9462 27.5925C22.1435 26.2907 27.3639 22.7115 28.3641 17.5865C28.7868 15.4128 28.2102 13.1067 26.8192 11.4182ZM26.8531 17.2921C25.9729 21.8047 21.1813 25.073 19.1614 26.2681C18.7541 26.5102 18.2454 26.5092 17.8381 26.2681C15.8182 25.073 11.0266 21.8047 10.1464 17.2921C9.80892 15.5646 10.2664 13.7345 11.3672 12.3968C12.3489 11.2058 13.705 10.5503 15.1884 10.5503C16.2327 10.5503 17.2339 10.8376 18.0853 11.3812C18.3377 11.5423 18.6618 11.5423 18.9142 11.3812C19.7656 10.8376 20.7668 10.5503 21.8111 10.5503C23.2934 10.5503 24.6506 11.2058 25.6323 12.3968C26.7331 13.7345 27.1896 15.5636 26.8531 17.2921Z" fill="#41416E"></path></svg>