<svg xmlns="http://www.w3.org/2000/svg" width="24" height="30" viewBox="0 0 24 30" fill="none"><path d="M12 0.166748C15.1826 0.166748 18.2348 1.43103 20.4853 3.68147C22.7357 5.9319 24 8.98415 24 12.1667C24 16.2654 21.7653 19.6201 19.4107 22.0267C18.2342 23.2162 16.9506 24.2945 15.576 25.2481L15.008 25.6347L14.7413 25.8121L14.2387 26.1321L13.7907 26.4054L13.236 26.7281C12.8595 26.943 12.4335 27.056 12 27.056C11.5665 27.056 11.1405 26.943 10.764 26.7281L10.2093 26.4054L9.516 25.9787L9.26 25.8121L8.71333 25.4481C7.23044 24.4448 5.8492 23.2989 4.58933 22.0267C2.23467 19.6187 0 16.2654 0 12.1667C0 8.98415 1.26428 5.9319 3.51472 3.68147C5.76515 1.43103 8.8174 0.166748 12 0.166748ZM12 8.16675C11.4747 8.16675 10.9546 8.27021 10.4693 8.47123C9.98396 8.67225 9.54301 8.96689 9.17157 9.33832C8.80014 9.70975 8.5055 10.1507 8.30448 10.636C8.10346 11.1213 8 11.6415 8 12.1667C8 12.692 8.10346 13.2122 8.30448 13.6975C8.5055 14.1828 8.80014 14.6237 9.17157 14.9952C9.54301 15.3666 9.98396 15.6612 10.4693 15.8623C10.9546 16.0633 11.4747 16.1667 12 16.1667C13.0609 16.1667 14.0783 15.7453 14.8284 14.9952C15.5786 14.245 16 13.2276 16 12.1667C16 11.1059 15.5786 10.0885 14.8284 9.33832C14.0783 8.58817 13.0609 8.16675 12 8.16675Z" fill="black"></path></svg>