<svg xmlns="http://www.w3.org/2000/svg" width="30" height="21" viewBox="0 0 30 21" fill="none"><path fill-rule="evenodd" clip-rule="evenodd" d="M4.33329 0.166748C3.36083 0.166748 2.4282 0.553056 1.74057 1.24069C1.05293 1.92832 0.666626 2.86095 0.666626 3.83341V17.1667C0.666626 18.1392 1.05293 19.0718 1.74057 19.7595C2.4282 20.4471 3.36083 20.8334 4.33329 20.8334H25.6666C26.6391 20.8334 27.5717 20.4471 28.2593 19.7595C28.947 19.0718 29.3333 18.1392 29.3333 17.1667V3.83341C29.3333 2.86095 28.947 1.92832 28.2593 1.24069C27.5717 0.553056 26.6391 0.166748 25.6666 0.166748H4.33329ZM8.90662 5.68141C8.68927 5.53958 8.42528 5.4878 8.17045 5.53703C7.91562 5.58626 7.68991 5.73264 7.54103 5.94524C7.39214 6.15783 7.33175 6.41998 7.3726 6.67629C7.41345 6.93259 7.55236 7.16298 7.75996 7.31875L14.4266 11.9854C14.5947 12.103 14.7948 12.1661 15 12.1661C15.2051 12.1661 15.4052 12.103 15.5733 11.9854L22.24 7.31875C22.3522 7.24547 22.4487 7.15037 22.5234 7.03908C22.5982 6.9278 22.6499 6.80261 22.6753 6.67097C22.7007 6.53932 22.6994 6.40391 22.6715 6.27277C22.6435 6.14164 22.5895 6.01747 22.5126 5.90764C22.4357 5.79782 22.3374 5.70458 22.2238 5.63348C22.1101 5.56237 21.9833 5.51486 21.8509 5.49375C21.7185 5.47264 21.5832 5.47838 21.453 5.51062C21.3229 5.54286 21.2005 5.60094 21.0933 5.68141L15 9.94675L8.90662 5.68141Z" fill="black"></path></svg>